HIERARCHY
ROOT Hips
{
  OFFSET 38.5825 92.6465 14.9016
  CHANNELS 6 Xposition Yposition Zposition Zrotation Xrotation Yrotation
  JOINT spine
  {
    OFFSET 0 7.4756 0.429885
    CHANNELS 3 Zrotation Xrotation Yrotation
    JOINT spine1
    {
      OFFSET 0 9.92301 0
      CHANNELS 3 Zrotation Xrotation Yrotation
      JOINT spine2
      {
        OFFSET 0 9.50804 0
        CHANNELS 3 Zrotation Xrotation Yrotation
        JOINT Neck
        {
          OFFSET 0 24.4111 1.16384
          CHANNELS 3 Zrotation Xrotation Yrotation
          JOINT Head
          {
            OFFSET 0 7.37523 0
            CHANNELS 3 Zrotation Xrotation Yrotation
            End Site
            {
              OFFSET 0 17.8522 -5.88741
            }
          }
        }
        JOINT RightShoulder
        {
          OFFSET -4.00356 10.2679 -0.557468
          CHANNELS 3 Zrotation Xrotation Yrotation
          JOINT RightArm
          {
            OFFSET 0 13.4673 0
            CHANNELS 3 Zrotation Xrotation Yrotation
            JOINT RightArmRoll
            {
              OFFSET 0 6.79857 0
              CHANNELS 3 Zrotation Xrotation Yrotation
              JOINT RightForeArm
              {
                OFFSET 0 19.8018 0
                CHANNELS 3 Zrotation Xrotation Yrotation
                JOINT RightForeArmRoll
                {
                  OFFSET 0 7.62905 0
                  CHANNELS 3 Zrotation Xrotation Yrotation
                  JOINT RightHand
                  {
                    OFFSET 0 15.3098 0
                    CHANNELS 3 Zrotation Xrotation Yrotation
                    End Site
                    {
                      OFFSET 0 0 0
                    }
                  }
                }
              }
            }
          }
        }
        JOINT LeftShoulder
        {
          OFFSET 4.00356 10.2679 -0.557468
          CHANNELS 3 Zrotation Xrotation Yrotation
          JOINT LeftArm
          {
            OFFSET 0 13.4673 0
            CHANNELS 3 Zrotation Xrotation Yrotation
            JOINT LeftArmRoll
            {
              OFFSET 0 6.79857 0
              CHANNELS 3 Zrotation Xrotation Yrotation
              JOINT LeftForeArm
              {
                OFFSET 0 19.8018 0
                CHANNELS 3 Zrotation Xrotation Yrotation
                JOINT LeftForeArmRoll
                {
                  OFFSET 0 7.62905 0
                  CHANNELS 3 Zrotation Xrotation Yrotation
                  JOINT LeftHand
                  {
                    OFFSET 0 15.3098 0
                    CHANNELS 3 Zrotation Xrotation Yrotation
                    End Site
                    {
                      OFFSET 0 0 0
                    }
                  }
                }
              }
            }
          }
        }
      }
    }
  }
  JOINT RightUpLeg
  {
    OFFSET -6.62609 -1.21505 -1.01927
    CHANNELS 3 Zrotation Xrotation Yrotation
    JOINT RightUpLegRoll
    {
      OFFSET 0 17.9517 0
      CHANNELS 3 Zrotation Xrotation Yrotation
      JOINT RightLeg
      {
        OFFSET 0 -22.2304 0
        CHANNELS 3 Zrotation Xrotation Yrotation
        JOINT RightLegRoll
        {
          OFFSET 0 22.3032 0
          CHANNELS 3 Zrotation Xrotation Yrotation
          JOINT RightFoot
          {
            OFFSET 0 18.5636 0
            CHANNELS 3 Zrotation Xrotation Yrotation
            JOINT RightToeBase
            {
              OFFSET 0 15.5183 0
              CHANNELS 3 Zrotation Xrotation Yrotation
              End Site
              {
                OFFSET 0.00657761 7.51538 -0.866263
              }
            }
          }
        }
      }
    }
  }
  JOINT LeftUpLeg
  {
    OFFSET 6.62609 -1.21505 -1.01927
    CHANNELS 3 Zrotation Xrotation Yrotation
    JOINT LeftUpLegRoll
    {
      OFFSET 0 17.9518 0
      CHANNELS 3 Zrotation Xrotation Yrotation
      JOINT LeftLeg
      {
        OFFSET 0 22.2303 0
        CHANNELS 3 Zrotation Xrotation Yrotation
        JOINT LeftLegRoll
        {
          OFFSET 0 22.5093 0
          CHANNELS 3 Zrotation Xrotation Yrotation
          JOINT LeftFoot
          {
            OFFSET 0 18.3575 0
            CHANNELS 3 Zrotation Xrotation Yrotation
            JOINT LeftToeBase
            {
              OFFSET 0 15.5183 0
              CHANNELS 3 Zrotation Xrotation Yrotation
              End Site
              {
                OFFSET -0.029478 7.51538 -0.866263
              }
            }
          }
        }
      }
    }
  }
}
MOTION
Frames: 12
Frame Time: 0.00208333
42.2924 92.8267 14.0881 3.75261 -0.22603 88.0745 -0.584559 -1.467 0.204752 -1.16227 1.06736 0.472556 -1.16865 2.71218 0.492259 -12.8583 -0.780814 -7.3632 16.0271 2.17012 -8.08726 38.1539 -11.529 -7.53598 -13.7726 84.3661 125.26 -3.34781e-006 -6.43749e-005 6.82532e-006 3.15236 50.2264 -4.17727 -2.37254e-005 -4.90759e-005 -2.99999 8.0291 -4.9514 0.697685 -73.8217 -4.6664 3.84942 -93.0668 15.8596 -9.3771 4.6444e-006 4.63005e-006 5.45929e-006 -12.035 20.2537 3.28394 3.96674e-006 3.23043e-006 3.00001 -8.0289 -4.9514 -0.697675 -173.769 -6.71595 -3.32689 180 7.01529e-015 178.847 178.127 6.24445 179.782 -2.26506e-006 1.79101e-005 0.105774 -20.202 68.9224 20.3556 8.36168 27.4895 -5.17585 -175.924 11.4519 -0.632385 4.54188e-006 -4.6773e-006 -0.942041 -4.56463 -17.3771 -0.144548 2.20926e-006 -2.10354e-006 -0.231754 18.3964 67.9654 -19.501 -8.13649 25.2327 3.4877 
42.2557 92.8268 14.0869 3.70185 -0.208528 88.0318 -0.586363 -1.46804 0.205426 -1.16531 1.06547 0.47449 -1.17171 2.7103 0.494241 -12.8618 -0.828368 -7.36021 16.0241 2.15651 -8.07771 38.1454 -11.529 -7.53614 -12.796 84.46 124.226 -3.34781e-006 -6.43749e-005 6.82532e-006 3.22609 50.3862 -4.22084 -2.37254e-005 -4.90759e-005 -2.99999 8.0291 -4.9514 0.697685 -73.8514 -4.65554 3.84641 -93.0347 15.9069 -9.31955 4.6444e-006 4.63005e-006 5.45929e-006 -12.0692 20.299 3.29549 3.96674e-006 3.23043e-006 3.00001 -8.0289 -4.9514 -0.697675 -173.792 -6.66031 -3.33286 180 7.01529e-015 178.848 178.132 6.2056 179.782 -2.26506e-006 1.79101e-005 0.106281 -20.213 68.9287 20.3616 8.35718 27.4551 -5.15018 -175.944 11.5003 -0.612504 4.54188e-006 -4.6773e-006 -0.940821 -4.56054 -17.3403 -0.142365 2.20926e-006 -2.10354e-006 -0.231675 18.3947 67.9631 -19.499 -8.13649 25.2327 3.4877 
42.208 92.8151 14.0594 3.65107 -0.18946 87.9879 -0.588147 -1.4693 0.20632 -1.16833 1.06311 0.476853 -1.17474 2.70794 0.496652 -12.8668 -0.87199 -7.3561 16.0225 2.14175 -8.06744 38.1339 -11.5285 -7.53603 -11.7779 84.5523 123.149 -3.34781e-006 -6.43749e-005 6.82532e-006 3.29869 50.5409 -4.26377 -2.37254e-005 -4.90759e-005 -2.99999 8.0291 -4.9514 0.697685 -73.8839 -4.64346 3.84304 -93.0008 15.9534 -9.26529 4.6444e-006 4.63005e-006 5.45929e-006 -12.1023 20.3395 3.30623 3.96674e-006 3.23043e-006 3.00001 -8.0289 -4.9514 -0.697675 -173.816 -6.6031 -3.33812 180 7.0153e-015 178.85 178.137 6.16931 179.782 -2.26506e-006 1.79101e-005 0.106861 -20.2244 68.9359 20.3684 8.35274 27.4209 -5.12465 -175.964 11.5486 -0.592765 4.54188e-006 -4.6773e-006 -0.939602 -4.55684 -17.3032 -0.140241 2.20926e-006 -2.10354e-006 -0.231605 18.3922 67.9599 -19.4961 -8.13649 25.2327 3.4877 
42.1714 92.8195 14.0584 3.60056 -0.16929 87.9428 -0.589887 -1.47069 0.207364 -1.17128 1.06051 0.479488 -1.17772 2.70534 0.499335 -12.8724 -0.912608 -7.3505 16.0215 2.12643 -8.05601 38.1211 -11.5273 -7.53531 -10.7271 84.6424 122.037 -3.34781e-006 -6.43749e-005 6.82532e-006 3.37025 50.6904 -4.30614 -2.37254e-005 -4.90759e-005 -2.99999 8.0291 -4.9514 0.697685 -73.918 -4.63088 3.83954 -92.9664 15.999 -9.21404 4.6444e-006 4.63005e-006 5.45929e-006 -12.134 20.3754 3.31615 3.96674e-006 3.23043e-006 3.00001 -8.0289 -4.9514 -0.697675 -173.84 -6.5447 -3.34281 180 7.0153e-015 178.851 178.141 6.13548 179.782 -2.26506e-006 1.79101e-005 0.107485 -20.236 68.9436 20.3757 8.34839 27.387 -5.09939 -175.985 11.5967 -0.573569 4.54188e-006 -4.6773e-006 -0.938386 -4.5537 -17.2663 -0.138242 2.20926e-006 -2.10354e-006 -0.231543 18.3893 67.9561 -19.4928 -8.13649 25.2327 3.4877 
42.132 92.812 14.0471 3.55064 -0.148514 87.8963 -0.591561 -1.47207 0.208485 -1.17413 1.05789 0.482242 -1.18061 2.70272 0.502135 -12.8778 -0.951149 -7.34306 16.0202 2.11117 -8.04295 38.1088 -11.5252 -7.53364 -9.65389 84.7296 120.9 -3.34781e-006 -6.43749e-005 6.82532e-006 3.44088 50.8345 -4.34807 -2.37254e-005 -4.90759e-005 -2.99999 8.0291 -4.9514 0.697685 -73.9523 -4.61853 3.83616 -92.9331 16.0437 -9.16548 4.6444e-006 4.63005e-006 5.45929e-006 -12.1642 20.407 3.32523 3.96674e-006 3.23043e-006 3.00001 -8.0289 -4.9514 -0.697675 -173.865 -6.48551 -3.34705 180 7.0153e-015 178.853 178.146 6.10402 179.782 -2.26506e-006 1.79101e-005 0.108125 -20.2472 68.9518 20.3833 8.34413 27.3536 -5.07452 -176.004 11.6445 -0.555315 4.54188e-006 -4.6773e-006 -0.937176 -4.55129 -17.2302 -0.136433 2.20926e-006 -2.10354e-006 -0.231485 18.3861 67.9519 -19.4891 -8.13649 25.2327 3.4877 
42.0916 92.8025 14.0389 3.5016 -0.127665 87.848 -0.593143 -1.47334 0.209611 -1.17686 1.05548 0.484957 -1.18336 2.70031 0.504894 -12.8821 -0.98854 -7.33342 16.0176 2.09657 -8.02781 38.0987 -11.5216 -7.5307 -8.56971 84.8132 119.747 -3.34781e-006 -6.43749e-005 6.82532e-006 3.5107 50.9732 -4.38964 -2.37254e-005 -4.90759e-005 -2.99999 8.0291 -4.9514 0.697685 -73.9854 -4.60711 3.83312 -92.9024 16.0874 -9.11933 4.6444e-006 4.63005e-006 5.45929e-006 -12.1927 20.4343 3.33348 3.96674e-006 3.23043e-006 3.00001 -8.0289 -4.9514 -0.697675 -173.89 -6.4259 -3.35097 180 7.01531e-015 178.854 178.15 6.07482 179.783 -2.26506e-006 1.79101e-005 0.108751 -20.2579 68.9599 20.391 8.34 27.321 -5.05018 -176.023 11.6918 -0.538405 4.54188e-006 -4.6773e-006 -0.935976 -4.54977 -17.1951 -0.134881 2.20926e-006 -2.10354e-006 -0.231427 18.3827 67.9475 -19.4852 -8.13649 25.2327 3.4877 
42.0579 92.7954 14.0385 3.45374 -0.107315 87.7977 -0.594609 -1.47439 0.21067 -1.17943 1.0535 0.487478 -1.18596 2.69834 0.507456 -12.8844 -1.02571 -7.32121 16.0129 2.08323 -8.01014 38.0927 -11.5164 -7.52615 -7.48699 84.8927 118.59 -3.34781e-006 -6.43749e-005 6.82532e-006 3.57982 51.1063 -4.43096 -2.37254e-005 -4.90759e-005 -2.99999 8.0291 -4.9514 0.697685 -74.0161 -4.59733 3.83067 -92.8758 16.1299 -9.07528 4.6444e-006 4.63005e-006 5.45929e-006 -12.2195 20.4575 3.34088 3.96674e-006 3.23043e-006 3.00001 -8.0289 -4.9514 -0.697675 -173.915 -6.36626 -3.35472 180 7.01531e-015 178.856 178.154 6.04775 179.783 -2.26506e-006 1.79101e-005 0.109334 -20.2675 68.9678 20.3984 8.336 27.2892 -5.0265 -176.04 11.7384 -0.52324 4.54188e-006 -4.6773e-006 -0.934788 -4.54931 -17.1617 -0.133649 2.20926e-006 -2.10354e-006 -0.231368 18.3793 67.9432 -19.4814 -8.13649 25.2327 3.4877 
42.0176 92.8025 14.0261 3.40737 -0.0880844 87.7452 -0.595936 -1.47509 0.211591 -1.1818 1.05218 0.489649 -1.18836 2.69702 0.509666 -12.8838 -1.06358 -7.30609 16.0053 2.07175 -7.98948 38.0923 -11.5093 -7.51965 -6.41983 84.9678 117.442 -3.34781e-006 -6.43749e-005 6.82532e-006 3.64835 51.2337 -4.47212 -2.37254e-005 -4.90759e-005 -2.99999 8.0291 -4.9514 0.697685 -74.043 -4.58993 3.82903 -92.8548 16.1712 -9.03305 4.6444e-006 4.63005e-006 5.45929e-006 -12.2442 20.4769 3.34742 3.96674e-006 3.23043e-006 3.00001 -8.0289 -4.9514 -0.697675 -173.939 -6.30697 -3.35843 180 7.01531e-015 178.857 178.158 6.02271 179.783 -2.26506e-006 1.79101e-005 0.109844 -20.2759 68.9751 20.4052 8.33217 27.2585 -5.00359 -176.055 11.7843 -0.51022 4.54188e-006 -4.6773e-006 -0.933616 -4.55007 -17.1304 -0.132805 2.20926e-006 -2.10354e-006 -0.231302 18.3762 67.9391 -19.4779 -8.13649 25.2327 3.4877 
41.9781 92.7984 14.0255 3.36277 -0.0706467 87.6901 -0.597099 -1.47533 0.2123 -1.18395 1.05174 0.491314 -1.19052 2.69658 0.511367 -12.8796 -1.10309 -7.28768 15.9937 2.06274 -7.96536 38.0994 -11.4998 -7.51088 -5.38309 85.038 116.317 -3.34781e-006 -6.43749e-005 6.82532e-006 3.7164 51.3553 -4.51324 -2.37254e-005 -4.90759e-005 -2.99999 8.0291 -4.9514 0.697685 -74.0648 -4.5856 3.82844 -92.8408 16.2111 -8.99232 4.6444e-006 4.63005e-006 5.45929e-006 -12.2669 20.4926 3.35311 3.96674e-006 3.23043e-006 3.00001 -8.0289 -4.9514 -0.697675 -173.963 -6.24842 -3.36221 180 7.01532e-015 178.858 178.162 5.99961 179.783 -2.26506e-006 1.79101e-005 0.110253 -20.2825 68.9816 20.4113 8.3285 27.2289 -4.9816 -176.068 11.8293 -0.499747 4.54188e-006 -4.6773e-006 -0.932463 -4.55221 -17.1017 -0.132412 2.20926e-006 -2.10354e-006 -0.231229 18.3734 67.9356 -19.4747 -8.13649 25.2327 3.4877 
41.9398 92.7966 14.0157 3.32026 -0.055741 87.6321 -0.598075 -1.47499 0.212726 -1.18584 1.05242 0.492318 -1.19243 2.69726 0.512402 -12.8708 -1.14517 -7.26564 15.9774 2.0568 -7.93735 38.1157 -11.4877 -7.49949 -4.39287 85.1031 115.228 -3.34781e-006 -6.43749e-005 6.82532e-006 3.7841 51.471 -4.55442 -2.37254e-005 -4.90759e-005 -2.99999 8.0291 -4.9514 0.697685 -74.0802 -4.58507 3.82914 -92.8353 16.2496 -8.9528 4.6444e-006 4.63005e-006 5.45929e-006 -12.2873 20.5048 3.35793 3.96674e-006 3.23043e-006 3.00001 -8.0289 -4.9514 -0.697675 -173.985 -6.191 -3.36622 180 7.01532e-015 178.86 178.165 5.97834 179.783 -2.26506e-006 1.79101e-005 0.110531 -20.2871 68.9869 20.4162 8.32503 27.2008 -4.96064 -176.077 11.8732 -0.492224 4.54188e-006 -4.6773e-006 -0.931332 -4.55591 -17.076 -0.132536 2.20926e-006 -2.10354e-006 -0.231143 18.3713 67.9327 -19.4723 -8.13649 25.2327 3.4877 
41.9018 92.7934 14.0107 3.27932 -0.0425546 87.5713 -0.598927 -1.47428 0.213015 -1.18761 1.05381 0.492952 -1.19421 2.69865 0.513066 -12.8582 -1.18773 -7.23993 15.9565 2.05263 -7.90559 38.1379 -11.4734 -7.48595 -3.442 85.1637 114.172 -3.34781e-006 -6.43749e-005 6.82532e-006 3.85065 51.5796 -4.59511 -2.37254e-005 -4.90759e-005 -2.99999 8.0291 -4.9514 0.697685 -74.0909 -4.58754 3.83089 -92.8358 16.2867 -8.91386 4.6444e-006 4.63005e-006 5.45929e-006 -12.3066 20.5129 3.36196 3.96674e-006 3.23043e-006 3.00001 -8.0289 -4.9514 -0.697675 -174.006 -6.13406 -3.37014 180 7.01532e-015 178.861 178.169 5.9592 179.783 -2.26506e-006 1.79101e-005 0.110727 -20.2901 68.9916 20.4206 8.32172 27.1739 -4.94057 -176.085 11.9164 -0.487451 4.54188e-006 -4.6773e-006 -0.930196 -4.56131 -17.053 -0.133188 2.20926e-006 -2.10354e-006 -0.231053 18.3694 67.9302 -19.47 -8.13649 25.2327 3.4877 
41.8617 92.7941 14.0067 3.23924 -0.0297254 87.5077 -0.599732 -1.47346 0.213359 -1.18941 1.05537 0.493609 -1.19602 2.70021 0.513754 -12.8435 -1.2282 -7.21096 15.9323 2.0486 -7.87072 38.1612 -11.4577 -7.47096 -2.51113 85.221 113.131 -3.34781e-006 -6.43749e-005 6.82532e-006 3.9153 51.6802 -4.63478 -2.37254e-005 -4.90759e-005 -2.99999 8.0291 -4.9514 0.697685 -74.0999 -4.59162 3.83324 -92.8386 16.3227 -8.87539 4.6444e-006 4.63005e-006 5.45929e-006 -12.3257 20.5162 3.36526 3.96674e-006 3.23043e-006 3.00001 -8.0289 -4.9514 -0.697675 -174.028 -6.07671 -3.37362 180 7.01533e-015 178.862 178.172 5.94252 179.783 -2.26506e-006 1.79101e-005 0.110908 -20.2922 68.9964 20.4249 8.31853 27.1478 -4.92112 -176.09 11.9595 -0.484822 4.54188e-006 -4.6773e-006 -0.929029 -4.56832 -17.0318 -0.134297 2.20926e-006 -2.10354e-006 -0.230964 18.3672 67.9272 -19.4675 -8.13649 25.2327 3.4877 
